<svg xmlns="http://www.w3.org/2000/svg" viewBox="0 0 764.96 265.61"><defs><style>.cls-1{isolation:isolate;}.cls-2{opacity:0.33;}.cls-3,.cls-5,.cls-6,.cls-7,.cls-8{fill:#73dbff;}.cls-3{opacity:0.36;}.cls-4{opacity:0.74;}.cls-5{opacity:0.47;}.cls-5,.cls-6,.cls-7,.cls-8{mix-blend-mode:screen;}.cls-6{opacity:0.37;}.cls-7{opacity:0.21;}</style></defs><title>资源 3</title><g class="cls-1"><g id="图层_2" data-name="图层 2"><g id="图层_1-2" data-name="图层 1"><g class="cls-2"><rect class="cls-3" x="5.44" y="117.7" width="722.61" height="0.96"/><rect class="cls-3" x="4.77" y="81.7" width="722.61" height="0.96"/><rect class="cls-3" x="7.44" y="18" width="722.61" height="7.7"/><rect class="cls-3" x="14.17" y="208.78" width="722.61" height="4.2"/><rect class="cls-3" x="4.17" y="108.78" width="722.61" height="4.2"/><rect class="cls-3" x="14.17" y="226.39" width="722.61" height="3.03"/><rect class="cls-3" x="2.17" y="34.39" width="722.61" height="3.03"/><rect class="cls-3" x="15.27" y="238.8" width="722.61" height="1.01"/><rect class="cls-3" x="11.6" y="188.72" width="722.61" height="1.01"/><rect class="cls-3" x="14.54" y="222.96" width="722.61" height="1.01"/></g><g class="cls-4"><path class="cls-5" d="M69.71,82.08a60.94,60.94,0,1,1,4.48,86A60.91,60.91,0,0,1,69.71,82.08Z"/><path class="cls-6" d="M39.34,46A102.9,102.9,0,1,1,46.9,191.28,102.85,102.85,0,0,1,39.34,46Z"/><path class="cls-7" d="M29.85,38.29a116.14,116.14,0,1,1,8.53,163.94A116.08,116.08,0,0,1,29.85,38.29Z"/><path class="cls-8" d="M20,119.31a9.11,9.11,0,1,1,.67,12.85A9.1,9.1,0,0,1,20,119.31Z"/><path class="cls-8" d="M55,105.47a9.11,9.11,0,1,1,.66,12.85A9.09,9.09,0,0,1,55,105.47Z"/><path class="cls-8" d="M161.76,49.23a13.23,13.23,0,1,1,1,18.68A13.24,13.24,0,0,1,161.76,49.23Z"/><path class="cls-8" d="M101.44,196.71a4.45,4.45,0,1,1,.33,6.29A4.46,4.46,0,0,1,101.44,196.71Z"/><path class="cls-8" d="M104.11,27.45a5.1,5.1,0,1,1,.38,7.2A5.1,5.1,0,0,1,104.11,27.45Z"/><path class="cls-8" d="M61.44,137.92a5.1,5.1,0,1,1,.38,7.2A5.1,5.1,0,0,1,61.44,137.92Z"/><path class="cls-8" d="M103.75,69.51a5.1,5.1,0,1,1,.38,7.2A5.1,5.1,0,0,1,103.75,69.51Z"/><path class="cls-8" d="M124.58,29a5.09,5.09,0,1,1,.37,7.19A5.08,5.08,0,0,1,124.58,29Z"/></g><g class="cls-4"><path class="cls-5" d="M660.62,169.23a39.14,39.14,0,1,1,2.87,55.25A39.12,39.12,0,0,1,660.62,169.23Z"/><path class="cls-6" d="M641.11,146.08A66.09,66.09,0,1,1,646,239.36,66,66,0,0,1,641.11,146.08Z"/><path class="cls-7" d="M635,141.11a74.59,74.59,0,1,1,5.47,105.29A74.55,74.55,0,0,1,635,141.11Z"/><path class="cls-8" d="M628.68,193.14a5.85,5.85,0,1,1,.43,8.26A5.86,5.86,0,0,1,628.68,193.14Z"/><path class="cls-8" d="M651.17,184.25a5.85,5.85,0,1,1,.43,8.26A5.86,5.86,0,0,1,651.17,184.25Z"/><path class="cls-8" d="M719.74,148.13a8.5,8.5,0,1,1,.62,12A8.49,8.49,0,0,1,719.74,148.13Z"/><path class="cls-8" d="M681,242.85a2.86,2.86,0,1,1,.21,4A2.85,2.85,0,0,1,681,242.85Z"/><path class="cls-8" d="M682.71,134.15a3.27,3.27,0,1,1,.24,4.62A3.26,3.26,0,0,1,682.71,134.15Z"/><path class="cls-8" d="M655.31,205.1a3.27,3.27,0,1,1,.24,4.62A3.26,3.26,0,0,1,655.31,205.1Z"/><path class="cls-8" d="M682.48,161.16a3.27,3.27,0,1,1,.24,4.62A3.27,3.27,0,0,1,682.48,161.16Z"/><path class="cls-8" d="M695.86,135.11a3.27,3.27,0,1,1,.23,4.62A3.27,3.27,0,0,1,695.86,135.11Z"/></g></g></g></g></svg>