<svg xmlns="http://www.w3.org/2000/svg" viewBox="0 0 751.58 282.4"><defs><style>.cls-1{fill:#fff;}</style></defs><title>资源 1</title><g id="图层_2" data-name="图层 2"><g id="图层_1-2" data-name="图层 1"><path class="cls-1" d="M734.59,213.16s-21.76-22.81-46.52-45.62c-12.38-11.4-25.51-22.81-37.05-31.37a132.93,132.93,0,0,0-15.84-10.35c-4.69-2.5-8.7-3.95-11.8-4a5.74,5.74,0,0,0-4.67,1.93c-1.07,1.3-1.62,3.26-1.62,6a35.86,35.86,0,0,0,1,7.81,78.43,78.43,0,0,1,2.28,17.51c0,9.84-2.81,16.76-8,21.21s-12.76,6.48-22.42,6.48c-25,0-63.65-13.59-109.21-33.44s-98-45.92-150.68-70.84C275.84,52.81,227.42,33.19,191.87,20c-17.78-6.6-32.33-11.59-42.79-14.94-5.23-1.67-9.44-2.93-12.52-3.77A32.84,32.84,0,0,0,130.78,0a1.08,1.08,0,0,0-.32,0l-.16.09-.06.15c0,.12.08.19.16.27a2.17,2.17,0,0,0,.34.24c11.8,7.15,21.69,21.46,28.6,38.56a151.79,151.79,0,0,1,10.87,55.21c0,15.58-2.88,30-9.25,40.47s-16.17,17-30.06,17a60.68,60.68,0,0,1-19.3-3.53C70.39,134.63,43.8,116,27.51,100.85a137,137,0,0,1-17.25-19.1c-1.77-2.4-3-4.33-3.84-5.66q-.62-1-.9-1.53c-.19-.35-.29-.52-.29-.53l-.46.14s24,46.84,106.62,74.7a61.26,61.26,0,0,0,19.51,3.57c14.13,0,24.12-6.7,30.52-17.26s9.29-25,9.29-40.62a152.18,152.18,0,0,0-10.89-55.32C152.88,22.11,143,7.74,131.06.51a1.73,1.73,0,0,1-.28-.2l0,0h0l-.07,0h.08v0l-.07,0h-.08l.13.07,0-.07h-.16l.13.07L130.6.29l.07.09,0,0L130.6.29l.07.09,0,0v0h0l0,0v0h.12a33.19,33.19,0,0,1,5.61,1.25c21.46,5.88,98.5,32.24,193.46,77.19,52.64,24.92,105.11,51,150.7,70.85S564.82,183.14,590,183.15c9.75,0,17.5-2.05,22.79-6.6s8.12-11.57,8.12-21.46a78.84,78.84,0,0,0-2.29-17.57,35.44,35.44,0,0,1-1-7.75c0-2.68.55-4.58,1.55-5.79a5.19,5.19,0,0,1,4.24-1.75c2.89,0,6.85,1.4,11.51,3.89,16.31,8.7,41.15,30.52,61.89,50.16,10.38,9.82,19.73,19.1,26.48,25.91,3.38,3.41,6.11,6.21,8,8.15l2.93,3,.4-.22"/><path class="cls-1" d="M735.25,211.88S714.22,189.94,690,168c-12.08-11-25-21.94-36.39-30.17a126.13,126.13,0,0,0-15.8-10c-4.72-2.41-8.81-3.8-12.06-3.8a6.56,6.56,0,0,0-5.38,2.24c-1.24,1.52-1.88,3.83-1.89,7a36.87,36.87,0,0,0,.7,6.62,79.51,79.51,0,0,1,1.45,14.38c0,11.18-3.22,19.05-9.13,24.11s-14.51,7.35-25.38,7.35c-23.58,0-57.72-10.84-97.14-27.5S404.88,119.2,360,96c-8-4.17-16.11-8.34-24.29-12.42A1266.6,1266.6,0,0,0,202.11,26.25c-17.65-6.34-32.36-11.08-43.2-14.24-5.43-1.58-9.89-2.77-13.27-3.56a38.77,38.77,0,0,0-6.82-1.19,2.06,2.06,0,0,0-.65.08l-.23.12a.28.28,0,0,0-.1.22.58.58,0,0,0,.24.41c13.58,12.62,28.26,37.55,32.46,65.38a145.07,145.07,0,0,1,1.65,21.47c0,16.24-3,31.47-9.73,42.61s-17.05,18.19-31.74,18.2A61.79,61.79,0,0,1,112,152.5c-41.3-13.28-68-31.38-84.43-46.17A136.18,136.18,0,0,1,10.13,87.67c-1.78-2.36-3.05-4.26-3.88-5.56-.41-.65-.71-1.16-.91-1.5s-.29-.51-.29-.51l-.47.13s24.41,46,107.17,72.61a62.33,62.33,0,0,0,19,3.28c14.93,0,25.46-7.2,32.2-18.42s9.77-26.49,9.77-42.76A144.38,144.38,0,0,0,171,73.43c-4.2-27.91-18.9-52.87-32.56-65.57-.11-.1-.14-.17-.13-.18h0a1.65,1.65,0,0,1,.47,0,38.21,38.21,0,0,1,6.67,1.18c23.56,5.5,100.2,30.35,190,75.09,8.17,4.07,16.26,8.24,24.28,12.42,44.85,23.18,89.58,45.64,129,62.31s73.6,27.55,97.38,27.55c11,0,19.74-2.32,25.76-7.48s9.25-13.12,9.25-24.35a79.12,79.12,0,0,0-1.46-14.43,37.27,37.27,0,0,1-.69-6.57c0-3.17.65-5.41,1.82-6.84a6,6,0,0,1,4.95-2.06c3.05,0,7.09,1.34,11.78,3.74,16.42,8.36,40.76,29.35,61,48.23,10.1,9.44,19.18,18.36,25.73,24.92,3.27,3.28,5.92,6,7.74,7.83l2.83,2.92.41-.21"/><path class="cls-1" d="M735.9,210.59S715.61,189.53,692,168.46c-11.79-10.53-24.4-21.07-35.72-29a120.84,120.84,0,0,0-15.75-9.57c-4.75-2.31-8.92-3.64-12.3-3.65a7.53,7.53,0,0,0-6.18,2.61c-1.43,1.77-2.18,4.47-2.18,8.24a39.74,39.74,0,0,0,.39,5.24,79.22,79.22,0,0,1,.81,11c0,12.67-3.72,21.58-10.45,27.31S594.16,189,582,189c-24.2,0-57.9-10.22-95.89-26.29s-80.29-38-121.73-61.34c-7.55-4.26-15.15-8.54-22.94-12.64a1004.39,1004.39,0,0,0-126.8-56c-17.25-6.16-32-10.76-43.37-13.82s-19.35-4.57-23.17-4.58a6.37,6.37,0,0,0-1.9.22c-.45.15-.76.43-.75.78v.11l.07,0c14.37,10.62,25,36.68,28,63.77A144.78,144.78,0,0,1,174.35,95c0,16.94-3.18,33.08-10.25,45s-18,19.49-33.59,19.49a62.42,62.42,0,0,1-18.2-3C70.9,143.82,44,126.24,27.53,111.82A134.08,134.08,0,0,1,10,93.58c-1.8-2.31-3.09-4.17-3.92-5.45-.42-.64-.72-1.13-.92-1.47l-.3-.5-.46.14s24.74,45.18,107.72,70.5a63.19,63.19,0,0,0,18.39,3c15.82,0,26.93-7.76,34-19.71S174.84,112,174.85,95A145.33,145.33,0,0,0,174,79.17c-3-27.14-13.6-53.23-28.14-64l-.17.13h.25v0c0-.19.11-.31.46-.44a5.65,5.65,0,0,1,1.69-.19c3.67,0,11.66,1.51,23,4.56,34,9.16,98.52,32.18,170.05,69.79,7.79,4.09,15.38,8.37,22.93,12.62C405.48,125,447.79,146.89,485.81,163s71.76,26.34,96.14,26.35c12.29,0,22.23-2.63,29.08-8.46S621.6,166,621.6,153.32a79.42,79.42,0,0,0-.81-11,39.44,39.44,0,0,1-.39-5.21c0-3.74.76-6.37,2.11-8.05a6.91,6.91,0,0,1,5.75-2.42c3.2,0,7.31,1.29,12,3.58,16.51,8,40.34,28.19,60,46.32,9.84,9.07,18.64,17.63,25,23.93,3.17,3.15,5.73,5.73,7.49,7.53s2.73,2.79,2.73,2.8l.41-.22"/><path class="cls-1" d="M736.55,209.31S717,189.11,694,168.91c-11.49-10.1-23.84-20.21-35-27.79s-21.22-12.65-28.22-12.67a8.53,8.53,0,0,0-7.06,3c-1.65,2.06-2.52,5.2-2.52,9.64,0,1.13,0,2.34.17,3.64q.35,3.83.34,7.31c0,14.23-4.25,24.23-11.87,30.68s-18.61,9.35-32.21,9.36c-24.69,0-57.88-9.64-94.41-25.15s-76.44-36.88-114.6-60.33c-7.06-4.34-14.18-8.72-21.6-12.84A799.49,799.49,0,0,0,226.05,39C192.14,27.1,167,21.36,157.25,21.36a12.58,12.58,0,0,0-3,.28,2.08,2.08,0,0,0-1.48.93l0,.1.09.08c12.59,10.49,21.79,35.86,23.56,62.18.22,3.25.33,6.51.33,9.75,0,17.66-3.34,34.8-10.82,47.5s-19.09,20.94-35.63,20.94a63.75,63.75,0,0,1-17.61-2.71c-41.52-12-68.52-29-85.14-43.1A131.15,131.15,0,0,1,9.87,99.49c-1.82-2.26-3.12-4.08-4-5.33C5.49,93.53,5.18,93,5,92.72s-.3-.5-.3-.5l-.46.14s25.05,44.37,108.26,68.4a64.43,64.43,0,0,0,17.79,2.73c16.8,0,28.56-8.39,36.08-21.16s10.87-30,10.87-47.65q0-4.87-.33-9.77c-1.79-26.38-10.95-51.76-23.68-62.4l-.19.12.24.06c.13-.29.5-.53,1.17-.7a12.08,12.08,0,0,1,2.82-.26c9.54,0,34.73,5.72,68.58,17.63A800.64,800.64,0,0,1,346.72,94.07c7.41,4.12,14.52,8.49,21.58,12.83,38.18,23.46,78.09,44.85,114.67,60.37s69.8,25.19,94.66,25.2c13.69,0,24.86-2.95,32.59-9.49s12-16.64,12-30.92q0-3.5-.34-7.33c-.12-1.3-.17-2.5-.17-3.62,0-4.4.88-7.49,2.45-9.45a8,8,0,0,1,6.63-2.84c6.69,0,16.72,5,27.88,12.58C675.41,152.74,694.79,169.78,710,184c7.59,7.1,14.14,13.49,18.78,18.1,2.33,2.31,4.18,4.17,5.44,5.46l2,2,.4-.21"/><path class="cls-1" d="M737.21,208S718.4,188.68,696,169.34c-11.18-9.67-23.25-19.34-34.32-26.6s-21.09-12.11-28.35-12.13c-3.38,0-6.17,1.09-8.05,3.49s-2.9,6.05-2.9,11.25c0,.58,0,1.18,0,1.8,0,1.16.07,2.3.07,3.42,0,15.87-4.86,27-13.44,34.25s-20.91,10.46-36,10.46c-50.17,0-130.35-36.34-200.2-83.36-6.57-4.43-13.21-8.9-20.25-13a651.5,651.5,0,0,0-115.11-53.5c-33.2-11.52-59-17-70.72-17a21.67,21.67,0,0,0-4.25.35,4.59,4.59,0,0,0-2.39,1.1l-.1.11.11.11c10.79,10.37,18.55,35,19.12,60.58,0,1.1,0,2.2,0,3.29,0,18.42-3.53,36.67-11.47,50.29S147.63,166.82,130,166.82a65,65,0,0,1-17-2.45C71.36,153,44.23,136.5,27.51,122.81A129.62,129.62,0,0,1,9.73,105.4c-1.83-2.21-3.14-4-4-5.22-.42-.61-.73-1.09-.94-1.41l-.3-.49L4,98.43S29.37,142,112.84,164.72A65.72,65.72,0,0,0,130,167.19c17.88,0,30.36-9.13,38.34-22.82s11.5-32,11.51-50.43c0-1.1,0-2.2,0-3.29-.59-25.61-8.31-50.29-19.23-60.81l-.2.12.21.1a4,4,0,0,1,2.12-.95,20.7,20.7,0,0,1,4.11-.34c11.58,0,37.36,5.42,70.51,16.94a650.65,650.65,0,0,1,115,53.45c7,4.14,13.65,8.61,20.23,13,69.9,47,150.07,83.44,200.53,83.45,15.15,0,27.65-3.29,36.35-10.59S623,166.49,623,150.57c0-1.12,0-2.27-.07-3.43,0-.62,0-1.22,0-1.79,0-5.16,1-8.77,2.83-11.06s4.38-3.3,7.62-3.31c7,0,17,4.8,28,12,16.56,10.86,35.42,27.17,50.13,40.76,7.36,6.79,13.68,12.91,18.17,17.33,2.24,2.2,4,4,5.24,5.22l1.88,1.91.41-.22"/><path class="cls-1" d="M737.86,206.74s-18.06-18.49-39.81-37c-10.87-9.24-22.66-18.48-33.59-25.42s-21-11.59-28.45-11.6c-3.79,0-6.94,1.23-9.09,3.95s-3.35,6.89-3.4,12.84c-.13,17.33-5.7,29.57-15.33,37.48s-23.31,11.49-39.78,11.49c-50.75,0-127.7-34.21-191.2-81.28-6.1-4.52-12.25-9.09-18.92-13.27a537.62,537.62,0,0,0-109.2-52.24c-32.43-11.15-58.69-16.31-72.28-16.31-4.54,0-7.68.56-9.22,1.74l-.14.11.11.12c8.6,9.79,14.73,32.09,14.73,55.65,0,1.11,0,2.23,0,3.35-.46,18.6-4.49,37.16-13,51.05s-21.36,23.1-39.57,23.1a65.68,65.68,0,0,1-16.35-2.21c-41.8-10.68-69.06-26.69-85.88-40a128,128,0,0,1-17.9-17c-1.85-2.16-3.17-3.91-4-5.11-.43-.61-.74-1.07-.95-1.39s-.3-.48-.3-.48l-.46.15s25.6,42.77,109.35,64.19a66.94,66.94,0,0,0,16.52,2.22c18.47,0,31.52-9.35,40-23.31s12.53-32.57,13-51.21c0-1.12,0-2.24,0-3.35,0-23.61-6.12-45.93-14.81-55.85l-.21.1.18.13c1.33-1,4.37-1.64,8.86-1.63,13.44,0,39.69,5.14,72.07,16.28A537.26,537.26,0,0,1,358,104.24c6.65,4.17,12.79,8.73,18.88,13.25,63.58,47.11,140.53,81.38,191.56,81.4,16.56,0,30.42-3.63,40.15-11.62s15.33-20.34,15.46-37.73c.05-5.91,1.25-10,3.33-12.66s5-3.75,8.66-3.75c7.22,0,17.24,4.58,28.13,11.5,16.34,10.38,34.68,26,48.92,39,7.12,6.49,13.22,12.34,17.54,16.56,2.16,2.11,3.87,3.81,5,5l1.81,1.82.4-.21"/><path class="cls-1" d="M738.51,205.45s-17.31-17.63-38.42-35.26c-10.56-8.82-22.06-17.64-32.84-24.26s-20.8-11.05-28.52-11.05c-4,0-7.42,1.23-9.85,4s-3.92,7-4.28,13.06c-1,17.56-7.64,30-18.31,38.09s-25.41,11.77-42.76,11.77c-51.12,0-124.74-32.21-182-79.26-5.61-4.61-11.28-9.26-17.57-13.48C293.67,62,217.7,42.38,187.17,42.37c-5.78,0-9.95.7-12.19,2.1l-.15.09.09.14c6.19,8.68,10.63,27.07,10.63,47.25,0,3.35-.12,6.74-.38,10.15-1.36,18.23-6.16,36.29-15.2,49.78s-22.29,22.37-40.58,22.37a67.31,67.31,0,0,1-15.67-2c-41.95-10-69.35-25.5-86.26-38.47a126,126,0,0,1-18-16.57c-1.86-2.12-3.19-3.83-4-5-.44-.59-.75-1-1-1.36l-.31-.47-.45.16s25.83,42,109.9,62.08a68.44,68.44,0,0,0,15.82,2c18.53,0,32-9,41-22.58s13.89-31.65,15.26-49.92c.26-3.41.38-6.82.38-10.17,0-20.23-4.43-38.63-10.69-47.43l-.22.09.16.14c2.06-1.3,6.14-2,11.87-2,30.31,0,106.27,19.58,176.42,66.59,6.27,4.2,11.93,8.84,17.54,13.45,57.37,47.1,131,79.38,182.4,79.39,17.44,0,32.34-3.73,43.12-11.89S624.07,169.56,625.1,152c.35-6,1.84-10.22,4.2-12.88s5.55-3.82,9.43-3.82c7.46,0,17.47,4.37,28.2,11,16.11,9.9,33.92,24.76,47.68,37.15,6.88,6.2,12.76,11.77,16.91,15.8,2.08,2,3.73,3.64,4.86,4.76l1.73,1.74.4-.22"/><path class="cls-1" d="M739.17,204.17s-16.57-16.79-37-33.58c-10.23-8.39-21.44-16.79-32.06-23.09S649.45,137,641.53,137c-4.26,0-7.92,1.25-10.65,4.05s-4.52,7.12-5.2,13.3c-2,17.78-9.66,30.48-21.41,38.73s-27.57,12.07-45.78,12.08c-51.26,0-121.46-30.34-172.7-77.29a176.24,176.24,0,0,0-16.23-13.69C305.27,68,231.45,49.3,197.91,49.29c-7.15,0-12.48.85-15.54,2.5l-.16.08.07.14c4,7.43,6.93,21.84,6.93,38.26a137.56,137.56,0,0,1-1.11,17.56c-2.28,17.87-7.88,35.43-17.49,48.5S147.38,178,129,178a68.91,68.91,0,0,1-15-1.73C72,166.88,44.43,151.93,27.42,139.32A123,123,0,0,1,9.3,123.16c-1.88-2.07-3.22-3.75-4.09-4.9-.44-.58-.75-1-1-1.34s-.31-.46-.31-.46l-.46.16s26.06,41.22,110.45,60a70.08,70.08,0,0,0,15.1,1.75c18.59,0,32.36-8.7,42-21.84s15.26-30.74,17.55-48.65a139.88,139.88,0,0,0,1.11-17.59c0-16.46-2.89-30.88-7-38.4l-.24.07.15.15c2.9-1.57,8.15-2.43,15.25-2.43,33.33,0,107.12,18.66,171.31,64.76a174.45,174.45,0,0,1,16.18,13.65c51.32,47,121.57,77.42,173.09,77.43,18.3,0,34.26-3.85,46.12-12.18s19.61-21.12,21.57-39c.67-6.14,2.47-10.4,5.11-13.11s6.11-3.89,10.24-3.89c7.68,0,17.65,4.16,28.23,10.44,15.87,9.42,33.13,23.58,46.41,35.37,6.64,5.9,12.29,11.2,16.28,15,2,1.91,3.57,3.46,4.65,4.53l1.66,1.66.41-.22"/><path class="cls-1" d="M739.82,202.88S724,186.94,704.19,171c-9.9-8-20.81-16-31.26-21.94s-20.41-10-28.52-10c-4.51,0-8.44,1.26-11.47,4.11s-5.16,7.24-6.18,13.55c-2.93,18-11.77,30.95-24.64,39.4s-29.76,12.4-48.82,12.4c-51.17,0-117.87-28.58-163.22-75.37a141.23,141.23,0,0,0-14.88-13.9C316.71,74,245.19,56.18,209,56.17c-8.62,0-15.25,1-19.25,2.94l-.15.07.05.13c2.18,5.93,3.73,16.19,3.73,28.28a145.06,145.06,0,0,1-2.35,26c-3.22,17.52-9.62,34.59-19.82,47.25S147,181.71,128.63,181.71a70.31,70.31,0,0,1-14.2-1.51c-42.29-8.68-70-23.11-87.06-35.36A121.29,121.29,0,0,1,9.15,129.08c-1.89-2-3.24-3.66-4.12-4.8-.44-.56-.76-1-1-1.3s-.31-.45-.31-.46l-.45.17s26.25,40.47,111,57.87a71.68,71.68,0,0,0,14.34,1.52c18.63,0,32.77-8.37,43-21.09s16.65-29.83,19.89-47.39a145.6,145.6,0,0,0,2.35-26c0-12.11-1.55-22.39-3.75-28.38l-.24,0,.13.16c3.86-1.86,10.41-2.88,19-2.88,36,0,107.46,17.82,165.84,63a141.23,141.23,0,0,1,14.84,13.86c45.43,46.87,112.2,75.52,163.62,75.52,19.15,0,36.18-4,49.15-12.5s21.87-21.55,24.8-39.62c1-6.27,3.14-10.61,6.08-13.37s6.7-4,11.08-4c7.88,0,17.81,4,28.22,9.93,15.61,9,32.31,22.39,45.11,33.59,6.39,5.6,11.82,10.64,15.64,14.28,1.91,1.82,3.42,3.29,4.45,4.31l1.59,1.57.4-.22"/><path class="cls-1" d="M740.47,201.6a428.78,428.78,0,0,0-34.2-30.23,235.3,235.3,0,0,0-30.44-20.79c-10.26-5.67-20.18-9.47-28.45-9.47a18.29,18.29,0,0,0-12.33,4.16c-3.34,2.9-5.83,7.39-7.22,13.83-3.93,18.23-14,31.43-28,40.09S567.86,212,548,212c-50.86,0-114-27-153.62-73.51a114.28,114.28,0,0,0-13.53-14.11C328,80.1,258.88,63,220.41,63c-10.18,0-18.21,1.19-23.28,3.42l-.14.06,0,.13a93.61,93.61,0,0,1,1.25,16.51,156.06,156.06,0,0,1-4.3,36.14c-4.19,17.19-11.4,33.75-22.19,46s-25.12,20.19-43.59,20.19a72.67,72.67,0,0,1-13.4-1.3c-42.47-8-70.28-21.9-87.46-33.8A118.72,118.72,0,0,1,9,135c-1.89-2-3.25-3.59-4.13-4.7-.45-.56-.77-1-1-1.28l-.31-.44-.45.16s26.42,39.75,111.54,55.77a73,73,0,0,0,13.52,1.31c18.68,0,33.17-8,44-20.35s18.07-28.92,22.26-46.14a156.19,156.19,0,0,0,4.31-36.21,94.54,94.54,0,0,0-1.25-16.57l-.25,0,.13.16c4.93-2.18,12.9-3.37,23-3.37,38.29,0,107.29,17.05,160,61.21A112.94,112.94,0,0,1,394,138.65c39.72,46.64,103,73.68,154,73.68,20,0,38.08-4.13,52.19-12.85s24.2-22,28.15-40.32c1.38-6.4,3.84-10.83,7.1-13.64a17.59,17.59,0,0,1,12-4c8.07,0,17.93,3.75,28.16,9.4,15.33,8.48,31.47,21.22,43.77,31.83,6.15,5.31,11.34,10.09,15,13.54,1.82,1.72,3.26,3.11,4.25,4.08l1.51,1.49.4-.22"/><path class="cls-1" d="M741.13,200.31a385.79,385.79,0,0,0-32.77-28.56,216.51,216.51,0,0,0-29.58-19.65c-10.07-5.37-19.92-9-28.34-9a20.61,20.61,0,0,0-13.22,4.23c-3.68,2.95-6.52,7.53-8.31,14.13-10,36.86-45,53.95-86.32,54-50.3,0-109.8-25.46-143.92-71.7-3.68-5-7.4-10-12.2-14.33C339,86.2,272.49,69.81,232.11,69.8c-11.79,0-21.36,1.4-27.6,4l-.13.06v.11c0,.22,0,.44,0,.68a182.13,182.13,0,0,1-7.5,50.4c-5.18,16.85-13.23,32.92-24.61,44.76s-26.08,19.45-44.59,19.46a74.17,74.17,0,0,1-12.56-1.11c-42.66-7.29-70.6-20.67-87.88-32.21a117.89,117.89,0,0,1-18.42-15c-1.9-1.94-3.27-3.51-4.15-4.6-.45-.55-.77-1-1-1.26s-.32-.43-.32-.43l-.45.17s26.58,39,112.09,53.65a74.35,74.35,0,0,0,12.67,1.12c18.71,0,33.56-7.71,45-19.61s19.5-28,24.69-44.9a182.41,182.41,0,0,0,7.51-50.48c0-.24,0-.46,0-.68h-.25l.13.16c6.11-2.51,15.61-3.91,27.35-3.91,40.21,0,106.63,16.36,154,59.5,4.76,4.33,8.46,9.28,12.14,14.27,34.21,46.35,93.83,71.89,144.36,71.9,41.46,0,76.82-17.25,86.81-54.27,1.77-6.55,4.6-11.07,8.19-13.94a19.94,19.94,0,0,1,12.85-4.12c8.23,0,18,3.54,28,8.89,15,8,30.6,20,42.4,30.08,5.9,5,10.86,9.53,14.35,12.79,1.74,1.63,3.11,2.94,4,3.85l1.44,1.41.4-.22"/><path class="cls-1" d="M741.78,199a342.73,342.73,0,0,0-31.32-26.92,200.67,200.67,0,0,0-28.69-18.52c-9.86-5.05-19.62-8.44-28.17-8.44a23,23,0,0,0-14.14,4.31c-4,3-7.27,7.68-9.47,14.43C617.84,201.17,579.83,219,537.13,219c-49.53,0-105.36-24.1-134.17-70-3.2-5.09-6.43-10.12-10.85-14.54-42.25-42.2-106.12-58-148.06-58-13.44,0-24.63,1.61-32.16,4.52l-.11,0,0,.1c-1.74,9.56-4.46,29.55-11.94,49.5-6.19,16.52-15.09,32.11-27.08,43.54S145.69,193,127.14,193a76.78,76.78,0,0,1-11.66-.92c-42.86-6.58-70.94-19.43-88.3-30.63a114.5,114.5,0,0,1-18.5-14.57c-1.92-1.89-3.29-3.43-4.18-4.5-.45-.54-.77-1-1-1.23l-.31-.43-.45.17s26.72,38.36,112.63,51.56a78,78,0,0,0,11.76.92c18.74,0,34-7.38,46-18.87s21-27.12,27.17-43.67c7.5-20,10.22-40,12-49.55l-.25,0,.11.17c7.42-2.87,18.55-4.48,31.93-4.48,41.78,0,105.53,15.73,147.66,57.82,4.38,4.38,7.6,9.39,10.79,14.47,28.9,46,84.88,70.19,134.63,70.19,42.89,0,81.16-18,93.35-55.44,2.18-6.7,5.4-11.32,9.33-14.25a22.5,22.5,0,0,1,13.79-4.2c8.37,0,18.07,3.34,27.88,8.37,14.72,7.55,29.71,18.9,41,28.35,5.65,4.72,10.37,9,13.69,12,1.65,1.53,3,2.77,3.85,3.63s1.36,1.33,1.36,1.33l.4-.22"/><path class="cls-1" d="M742.44,197.74a310.81,310.81,0,0,0-29.86-25.29,187.9,187.9,0,0,0-27.78-17.39c-9.63-4.75-19.28-7.93-27.93-7.93a25.8,25.8,0,0,0-15.1,4.39c-4.4,3.06-8,7.84-10.7,14.76-14.42,37.68-55.44,56.39-99.42,56.4-48.55,0-100.67-22.85-124.4-68.3-2.71-5.19-5.46-10.29-9.5-14.75-37.26-41.15-98.41-56.36-141.56-56.36-15.09,0-28,1.86-36.92,5.13l-.1,0,0,.08c-3.55,9.45-7.83,28.79-16.39,47.92-7.25,16.21-17,31.3-29.62,42.33s-28,18-46.61,18a79.06,79.06,0,0,1-10.68-.74c-43.09-5.86-71.29-18.18-88.73-29a113,113,0,0,1-18.6-14.19c-1.92-1.85-3.3-3.37-4.19-4.41-.45-.53-.78-.93-1-1.21L3,146.77l-.44.17s26.84,37.72,113.18,49.46a80.37,80.37,0,0,0,10.77.74c18.77,0,34.33-7,47-18.13s22.45-26.22,29.72-42.45C211.8,117.4,216.09,98,219.62,88.62l-.24-.05.11.17c8.83-3.24,21.66-5.1,36.7-5.1,43,0,104,15.17,141.14,56.19,4,4.43,6.75,9.5,9.45,14.68,23.8,45.59,76.11,68.54,124.87,68.54,44.16,0,85.43-18.83,99.9-56.67,2.63-6.88,6.25-11.6,10.56-14.59a25.29,25.29,0,0,1,14.76-4.29c8.48,0,18.07,3.14,27.65,7.87,14.39,7.09,28.77,17.74,39.55,26.62,5.39,4.43,9.89,8.43,13,11.31,1.57,1.45,2.8,2.61,3.65,3.42L742,198l.4-.22"/><path class="cls-1" d="M743.09,196.45a275.74,275.74,0,0,0-28.38-23.66c-16.36-11.83-37-23.69-54.46-23.7a28.94,28.94,0,0,0-16.1,4.46c-4.78,3.13-8.87,8-12,15.12-16.77,38.05-60.87,57.72-106,57.73-47.37,0-95.79-21.72-114.65-66.71-2.22-5.29-4.49-10.44-8.16-15C370.89,104.64,312.53,90,268.48,90c-16.73,0-31.4,2.12-41.83,5.78l-.09,0,0,.06c-5.36,9.34-11.23,28-20.84,46.34-8.35,15.9-19,30.51-32.24,41.14s-29,17.26-47.62,17.27a82.06,82.06,0,0,1-9.64-.58c-43.3-5.12-71.64-16.91-89.16-27.43A110.31,110.31,0,0,1,8.35,158.75c-1.93-1.81-3.31-3.29-4.21-4.32-.45-.51-.78-.91-1-1.19l-.31-.41-.45.18s27,37.1,113.73,47.34a81.19,81.19,0,0,0,9.72.59c18.79,0,34.7-6.71,48-17.39s24-25.33,32.33-41.25C215.78,124,221.66,105.25,227,96l-.23-.07.11.16c10.34-3.63,24.95-5.74,41.62-5.74,43.92,0,102.1,14.65,134.48,54.6,3.62,4.47,5.88,9.6,8.1,14.88,18.92,45.14,67.56,67,115.13,67,45.28,0,89.61-19.77,106.44-58,3.1-7.06,7.16-11.89,11.85-15a28.29,28.29,0,0,1,15.77-4.37c17.14,0,37.79,11.78,54.11,23.59,8.16,5.91,15.24,11.82,20.29,16.25,2.52,2.21,4.53,4.06,5.91,5.35s2.13,2,2.13,2l.4-.23"/><path class="cls-1" d="M743.74,195.17a243.23,243.23,0,0,0-26.89-22.06c-15.62-11-35.58-22.08-53.09-22.09a32.18,32.18,0,0,0-17.14,4.55c-5.19,3.19-9.74,8.2-13.39,15.49-19.19,38.41-66.44,59.13-112.44,59.13s-90.72-20.7-105-65.19c-1.72-5.39-3.52-10.6-6.8-15.18-27.95-39-83.49-53.23-128.13-53.23-18.33,0-34.83,2.4-46.86,6.47l-.08,0,0,0c-7.16,9.22-14.65,27.26-25.29,44.76-9.48,15.58-21.06,29.72-34.92,39.94s-30,16.55-48.65,16.55q-4.17,0-8.51-.43c-43.53-4.36-72-15.63-89.6-25.81A107,107,0,0,1,8.19,164.69,58.75,58.75,0,0,1,4,160.46c-.45-.5-.78-.89-1-1.16s-.32-.41-.32-.41l-.44.18s27.05,36.52,114.27,45.24a83.88,83.88,0,0,0,8.58.44c18.8,0,35.07-6.38,49-16.66s25.53-24.44,35-40.05c10.65-17.52,18.15-35.58,25.26-44.72l-.21-.1.1.17c11.94-4,28.39-6.43,46.66-6.43,44.52,0,99.85,14.18,127.69,53,3.24,4.52,5,9.7,6.76,15.08,14.28,44.65,59.25,65.48,105.45,65.48s93.64-20.81,112.91-59.37c3.62-7.25,8.14-12.2,13.24-15.33a31.5,31.5,0,0,1,16.82-4.47c17.23,0,37.17,11,52.75,22,7.79,5.5,14.5,11,19.26,15.14,2.38,2.06,4.28,3.78,5.58,5s2,1.89,2,1.89l.4-.22"/><path class="cls-1" d="M744.39,193.88A215.51,215.51,0,0,0,719,173.41c-14.87-10.23-34.09-20.48-51.61-20.49a35.7,35.7,0,0,0-18.21,4.64c-5.62,3.26-10.68,8.4-14.88,15.89-21.69,38.73-72.12,60.61-118.83,60.61-44.46,0-85.52-19.78-95.37-63.75-1.23-5.49-2.56-10.75-5.45-15.39C391,117,338.34,103.2,293.38,103.2c-19.88,0-38.25,2.69-52,7.18l-.06,0,0,0c-9,9.1-18.09,26.48-29.75,43.17-10.67,15.28-23.19,28.94-37.71,38.77s-31,15.82-49.68,15.82c-2.38,0-4.81-.09-7.27-.29-43.75-3.58-72.36-14.33-90-24.18A105.76,105.76,0,0,1,8,170.65c-1.94-1.74-3.34-3.16-4.24-4.15-.46-.5-.79-.88-1-1.15L2.46,165l-.44.18s27.13,36,114.82,43.13q3.72.31,7.32.31c18.81,0,35.44-6.06,50-15.93s27.13-23.56,37.82-38.87c11.66-16.71,20.8-34.1,29.7-43.12l-.2-.11.1.17c13.65-4.46,32-7.15,51.78-7.15,44.84,0,97.3,13.73,120.82,51.51,2.86,4.58,4.19,9.8,5.42,15.29,9.86,44.13,51.2,64.07,95.86,64.06,46.91,0,97.51-22,119.29-60.83,4.18-7.46,9.19-12.53,14.72-15.75a35.09,35.09,0,0,1,17.91-4.56c17.25,0,36.44,10.18,51.27,20.4a221.9,221.9,0,0,1,18.23,14c2.24,1.91,4,3.51,5.23,4.63s1.87,1.75,1.87,1.75l.4-.23"/><path class="cls-1" d="M745.05,192.6a190.17,190.17,0,0,0-23.87-18.9c-14.11-9.44-32.55-18.91-50-18.92-13.41,0-26.19,5.63-35.78,21.06-24.27,39-77.9,62.18-125.09,62.17-21.39,0-41.44-4.75-56.86-14.91s-26.21-25.76-29-47.48c-.73-5.59-1.61-10.9-4.11-15.6-19.55-36.88-69.36-50.24-114.38-50.24-21.34,0-41.62,3-57.13,7.93h-.05l0,0c-10.78,9-21.56,25.69-34.2,41.58-11.92,15-25.42,28.17-40.61,37.61s-32.06,15.11-50.74,15.11c-1.94,0-3.91-.06-5.89-.19-44-2.78-72.74-13-90.49-22.52A103.06,103.06,0,0,1,7.85,176.6a55.05,55.05,0,0,1-4.26-4.07c-.45-.48-.78-.86-1-1.12L2.27,171l-.44.18s27.22,35.46,115.37,41q3,.2,5.94.19c18.82,0,35.81-5.73,51.06-15.2s28.78-22.69,40.72-37.7c12.64-15.91,23.44-32.63,34.14-41.52l-.18-.12.09.17c15.44-4.91,35.66-7.9,56.94-7.9,44.91,0,94.47,13.31,113.92,50,2.46,4.64,3.34,9.91,4.07,15.49,2.84,21.8,13.69,37.49,29.21,47.72s35.7,15,57.19,15c47.4,0,101.18-23.22,125.55-62.38,9.56-15.35,22.11-20.84,35.32-20.84,17.21,0,35.61,9.39,49.67,18.82a197.23,197.23,0,0,1,17.19,13c2.09,1.76,3.75,3.24,4.88,4.27s1.74,1.61,1.74,1.62l.4-.23"/><path class="cls-1" d="M745.7,191.31A166.89,166.89,0,0,0,723.36,174c-13.33-8.66-31-17.35-48.27-17.36-14,0-27.72,5.72-38.62,21.63-26.91,39.28-83.76,63.82-131.18,63.81-20.49,0-39.2-4.57-53-14.48s-22.73-25.19-23.6-46.64c-.23-5.69-.66-11-2.75-15.81-7.84-17.91-23.51-30.12-42.8-37.84s-42.23-11-64.66-11c-22.73,0-44.93,3.33-62.32,8.71l0,0,0,0c-12.59,8.84-25,24.88-38.66,40C191,194.44,159.35,215.92,122,215.92c-1.45,0-2.9,0-4.36-.1-44.22-2-73.1-11.66-90.93-20.86a101.05,101.05,0,0,1-19-12.39,58.29,58.29,0,0,1-4.28-4c-.45-.48-.78-.85-1-1.1l-.33-.39-.43.19s27.3,35,115.92,38.92c1.47.07,2.93.1,4.39.1,37.67,0,69.37-21.61,95.88-51,13.61-15.12,26.08-31.15,38.58-39.92l-.17-.14.09.18c17.32-5.36,39.47-8.69,62.13-8.69,22.36,0,45.22,3.24,64.42,10.92s34.76,19.81,42.56,37.62c2.06,4.71,2.5,10,2.73,15.71.87,21.52,9.84,36.9,23.76,46.89s32.77,14.59,53.35,14.59c47.64,0,104.61-24.6,131.63-64C647.78,162.58,661.3,157,675.09,157c17.08,0,34.66,8.62,47.94,17.26a176.14,176.14,0,0,1,16.12,11.89c2,1.62,3.5,3,4.55,3.92s1.6,1.48,1.61,1.48l.39-.23"/><path class="cls-1" d="M746.36,190a146,146,0,0,0-20.81-15.81c-12.53-7.89-29.31-15.81-46.38-15.82-14.57,0-29.3,5.8-41.62,22.23-29.62,39.51-89.69,65.55-137.09,65.54-18.92,0-35.81-4.14-48-13.2s-19.62-23.06-19.62-42.84c0-1.27,0-2.57.09-3.89.08-1.66.14-3.29.14-4.89a33.69,33.69,0,0,0-1.54-11.13c-6.05-17.46-20.59-30-39.19-38.1s-41.29-11.89-63.65-11.89c-23.87,0-47.39,4.29-65.23,12.14-16,7.06-28.58,24.09-43.13,38.41-29.26,28.81-62.35,49-99.79,49l-2.62,0c-44.45-1.12-73.47-10.29-91.37-19.17A99.45,99.45,0,0,1,7.52,188.54a53,53,0,0,1-4.29-3.93c-.45-.47-.79-.84-1-1.09s-.32-.38-.32-.38l-.43.19s27.39,34.58,116.46,36.82l2.64,0c37.7,0,70.89-20.34,100.19-49.18,14.57-14.35,27.17-31.35,43-38.31,17.74-7.81,41.18-12.09,65-12.09,22.29,0,44.88,3.75,63.39,11.84s32.95,20.51,39,37.87a33.53,33.53,0,0,1,1.52,11c0,1.59-.06,3.22-.14,4.88q-.09,2-.09,3.9c0,19.84,7.49,34,19.77,43.1s29.31,13.32,48.32,13.32c47.64,0,107.8-26.11,137.53-65.74,12.27-16.35,26.8-22,41.18-22,16.86,0,33.57,7.85,46.06,15.73a153.77,153.77,0,0,1,15,10.83c1.81,1.47,3.23,2.7,4.2,3.57s1.48,1.34,1.48,1.34l.4-.22"/><path class="cls-1" d="M747,188.74a127.83,127.83,0,0,0-19.26-14.29c-11.71-7.14-27.6-14.3-44.33-14.3-15.14,0-30.93,5.89-44.78,22.87-32.4,39.7-95.67,67.37-142.79,67.37-16.92,0-31.74-3.56-42.33-11.38s-17-19.92-17-37.07a78.18,78.18,0,0,1,.72-10.39,71.84,71.84,0,0,0,.74-9.2,28.38,28.38,0,0,0-.79-7c-4.34-17-17.26-29.07-34.62-36.89s-39.17-11.37-61.3-11.37c-25,0-50.42,4.53-70.4,12.63-17.49,7.1-32.09,23.25-47.58,36.81-32.25,28.24-66.87,47.24-104.37,47.24h-.63c-44.68-.26-73.82-8.9-91.81-17.48A95.58,95.58,0,0,1,7.36,194.51a52.57,52.57,0,0,1-4.31-3.85c-.46-.47-.79-.83-1-1.08l-.33-.38-.42.19s27.48,34.21,117,34.72h.63c37.74,0,72.47-19.1,104.75-47.37,15.5-13.59,30.11-29.7,47.44-36.72,19.89-8.07,45.25-12.59,70.16-12.59,22.06,0,43.78,3.55,61,11.32s30.07,19.75,34.38,36.64a27.77,27.77,0,0,1,.79,7,71.38,71.38,0,0,1-.74,9.16,78.77,78.77,0,0,0-.72,10.43c0,17.21,6.43,29.42,17.13,37.33s25.68,11.49,42.69,11.49c47.37,0,110.71-27.74,143.21-67.55,13.82-16.91,29.41-22.69,44.36-22.69,16.53,0,32.34,7.1,44,14.22a135.81,135.81,0,0,1,14,9.79c1.67,1.33,3,2.44,3.86,3.22s1.35,1.22,1.36,1.22l.39-.23"/><path class="cls-1" d="M747.66,187.46A108.63,108.63,0,0,0,730,174.65c-10.88-6.39-25.83-12.81-42.11-12.81-15.69,0-32.58,6-48.13,23.58C604.5,225.27,538,254.69,491.46,254.68c-15,0-28-3.05-37.15-9.78s-14.64-17.13-14.65-31.9a76.54,76.54,0,0,1,1.87-16.14,59.5,59.5,0,0,0,1.62-12.22,26.61,26.61,0,0,0-.32-4.22c-2.72-16.52-14.06-28.18-30.16-35.69s-37-10.88-58.75-10.89c-26,0-53.42,4.82-75.66,13.18-19,7.15-35.61,22.38-52,35.2-34.93,27.29-70.62,45-107.58,45.48l-4.91,0c-42.94,0-71-8.13-88.32-16.25A92.33,92.33,0,0,1,7,200.32a49.44,49.44,0,0,1-4.16-3.67c-.44-.44-.77-.79-1-1l-.31-.35-.43.19s26.58,32.65,112.64,32.64l4.92,0c37.18-.53,73-18.28,107.94-45.59,16.43-12.84,33-28,51.88-35.13,22.16-8.33,49.48-13.13,75.44-13.13,21.73,0,42.49,3.36,58.48,10.82s27.23,19,29.93,35.43a25.9,25.9,0,0,1,.32,4.17A58.54,58.54,0,0,1,441,196.8a77.74,77.74,0,0,0-1.87,16.2c0,14.84,5.5,25.36,14.8,32.17s22.39,9.88,37.5,9.88c46.85,0,113.34-29.48,148.68-69.43,15.5-17.53,32.2-23.4,47.71-23.41,16.1,0,31,6.36,41.8,12.74a118.25,118.25,0,0,1,12.87,8.76c1.53,1.19,2.72,2.19,3.52,2.89s1.23,1.09,1.23,1.09l.39-.23"/><path class="cls-1" d="M748.31,186.17s-24.4-22.68-55.84-22.7c-16.21,0-34.25,6.07-51.67,24.34-38.1,40-107.69,71.26-153.47,71.25-13.25,0-24.49-2.62-32.41-8.37S442.35,236,442.35,223.36a75.48,75.48,0,0,1,3.46-21.19c1.58-5.35,2.72-10.27,2.72-14.8,0-.62,0-1.24-.07-1.84-1.19-16.05-11-27.31-25.81-34.53s-34.68-10.42-56-10.42a254.36,254.36,0,0,0-81,13.76c-20.57,7.22-39.11,21.51-56.46,33.61-37.45,26.13-74,42.46-110.17,43.71-4,.13-7.87.2-11.62.2-40.49,0-67-7.65-83.39-15.28a88,88,0,0,1-17.47-10.5,48,48,0,0,1-3.95-3.45q-.63-.63-.93-1c-.2-.23-.29-.34-.3-.34l-.42.19s25.31,30.72,106.46,30.71c3.76,0,7.64-.06,11.65-.2,36.38-1.26,73-17.66,110.48-43.81,17.36-12.11,35.89-26.37,56.34-33.54A253.6,253.6,0,0,1,366.65,141c21.26,0,41,3.19,55.72,10.36s24.4,18.29,25.59,34.24c0,.6.07,1.21.07,1.82,0,4.48-1.13,9.38-2.71,14.72a76,76,0,0,0-3.47,21.27c0,12.73,4.67,21.75,12.72,27.59s19.42,8.48,32.76,8.48c46.05,0,115.67-31.35,153.88-71.41,17.36-18.2,35.23-24.17,51.26-24.18,15.55,0,29.42,5.64,39.4,11.28a101.67,101.67,0,0,1,11.77,7.76c1.39,1.06,2.46,1.94,3.18,2.56s1.1,1,1.1,1l.39-.23"/><path class="cls-1" d="M749,184.89S727.35,165.05,697.31,165c-16.69,0-35.94,6.14-55.43,25.16-20.51,20-48.94,38.36-77.83,51.68s-58.26,21.63-80.61,21.63c-11.6,0-21.29-2.23-28.08-7.13s-10.73-12.48-10.73-23.26c0-7.11,1.72-15.62,5.46-25.65,2.31-6.18,3.92-11.76,4-16.84V190c0-15.33-8.36-26-21.89-32.87s-32.16-9.83-52.74-9.83c-27.89,0-59.34,5.5-86.45,14.42-22.16,7.29-42.63,20.61-60.9,32-40,24.94-77.32,40-112.76,42q-9.48.51-18.06.51c-38.14,0-63.17-7.2-78.67-14.39a83.44,83.44,0,0,1-16.55-9.88,46.12,46.12,0,0,1-3.74-3.24c-.4-.4-.7-.7-.89-.91l-.28-.32-.43.2S24.84,236.5,101.29,236.5q8.59,0,18.1-.51c35.61-2,73-17.08,113-42,18.28-11.4,38.72-24.69,60.79-32,27-8.9,58.44-14.39,86.24-14.39,20.51,0,39.06,3,52.46,9.77s21.67,17.33,21.67,32.56v.67c-.08,5-1.68,10.58-4,16.76-3.75,10-5.48,18.58-5.48,25.74,0,10.84,4,18.54,10.88,23.53s16.75,7.23,28.43,7.23c22.52,0,51.93-8.34,80.87-21.68s57.41-31.71,78-51.77c19.43-19,38.51-25,55-25,14.86,0,27.68,4.92,36.79,9.85A89.25,89.25,0,0,1,744.76,182c1.24.93,2.2,1.7,2.84,2.24s1,.84,1,.84l.39-.23"/><path class="cls-1" d="M749.62,183.6a76,76,0,0,0-47.26-17.09c-17.1,0-37.61,6.23-59.4,26.08-22,20-51.92,38.92-81.79,52.77S501.51,268,479.81,268c-10.07,0-18.37-1.89-24.16-6s-9.09-10.56-9.09-19.66c0-7.81,2.43-17.58,7.81-29.56,2.82-6.28,4.81-11.92,5.35-17.05a41.68,41.68,0,0,0,.23-4.25c0-13.54-7.38-23-19.54-29s-29-8.63-48.1-8.63c-28.64,0-62.19,5.91-91.92,15.13-23.78,7.39-46.14,19.7-65.34,30.41-42.51,23.69-80.65,37.53-115.34,40.18-8.63.65-16.69.95-24.21.95-35.9,0-59.53-6.78-74.19-13.55a80,80,0,0,1-15.67-9.31,45.43,45.43,0,0,1-3.56-3.06c-.38-.37-.65-.66-.84-.86l-.27-.3-.42.2s23,27.26,95,27.25c7.54,0,15.61-.3,24.26-1,34.83-2.65,73-16.53,115.59-40.25,19.2-10.7,41.53-23,65.24-30.35,29.67-9.22,63.17-15.11,91.72-15.11,19,0,35.8,2.61,47.83,8.57s19.3,15.24,19.31,28.68a41.11,41.11,0,0,1-.23,4.22c-.54,5.08-2.51,10.7-5.33,17-5.38,12-7.83,21.81-7.83,29.68,0,9.17,3.34,15.7,9.25,19.93s14.35,6.14,24.5,6.14c21.87,0,51.72-8.86,81.63-22.74s59.87-32.76,81.91-52.84c21.73-19.8,42.08-25.94,59-25.94a74.16,74.16,0,0,1,34,8.47,75.48,75.48,0,0,1,9.54,5.83c1.1.8,1.94,1.46,2.51,1.92s.85.73.85.73l.39-.24"/><path class="cls-1" d="M750.27,182.31S734,167.9,707.64,167.89c-17.42,0-39.21,6.3-63.59,27.1-23.51,20-54.94,39.47-85.74,53.87s-61,23.78-81.89,23.78c-8.65,0-15.71-1.6-20.6-5.08s-7.65-8.86-7.65-16.5c0-8.25,3.23-19.11,10.48-33,3.32-6.37,5.69-12.08,6.7-17.26a38.63,38.63,0,0,0,.75-7.41c0-11.91-6.47-20.2-17.34-25.47s-26.08-7.56-43.58-7.56c-29.26,0-64.93,6.38-97.41,15.93-25.42,7.48-49.64,18.77-69.78,28.8-45,22.43-84,35.09-117.93,38.41-10.9,1.07-20.88,1.54-30,1.54-33.78,0-56.1-6.4-70-12.79a76.21,76.21,0,0,1-14.85-8.79,39.6,39.6,0,0,1-3.37-2.89c-.37-.35-.63-.62-.81-.8l-.25-.28-.42.19S22.29,245.45,90,245.44c9.17,0,19.18-.47,30.09-1.54,34.08-3.34,73.07-16,118.15-38.47,20.13-10,44.32-21.31,69.69-28.76,32.43-9.55,68.06-15.91,97.22-15.91,17.45,0,32.57,2.28,43.3,7.5s17.12,13.35,17.12,25.16a38.21,38.21,0,0,1-.75,7.36c-1,5.13-3.35,10.82-6.67,17.17-7.25,13.89-10.51,24.79-10.51,33.11,0,7.7,2.79,13.2,7.81,16.77S467.69,273,476.42,273c21.12,0,51.32-9.42,82.16-23.84s62.3-33.85,85.84-53.94c24.33-20.75,46-27,63.22-27a70.33,70.33,0,0,1,30.93,7.14,63.94,63.94,0,0,1,8.4,4.92c1,.67,1.69,1.22,2.18,1.61s.74.61.74.61l.38-.24"/><path class="cls-1" d="M750.92,181s-13.68-11.87-37.75-11.87c-17.61,0-40.72,6.34-68,28.22-25,20-57.93,40-89.6,55s-62.12,24.94-82.15,24.94c-7.37,0-13.31-1.35-17.41-4.25s-6.39-7.4-6.39-13.77c0-8.48,4.08-20.27,13.35-35.93a75,75,0,0,0,8-17.46,37.17,37.17,0,0,0,1.56-10.22c0-10.42-5.66-17.67-15.31-22.27s-23.26-6.6-39.19-6.6c-29.7,0-67.52,6.91-102.88,16.81-27.08,7.57-53.13,17.83-74.22,27.2C193.39,232,153.66,243.5,120.41,247.49a296.7,296.7,0,0,1-35.51,2.25c-31.8,0-52.87-6.05-66-12.1a73.52,73.52,0,0,1-14.08-8.3c-1.46-1.13-2.52-2.08-3.21-2.73-.34-.33-.6-.59-.76-.77a3.22,3.22,0,0,1-.24-.26l-.43.2s21,24.34,84.72,24.33a297.84,297.84,0,0,0,35.59-2.25c33.34-4,73.12-15.56,120.69-36.69,21.08-9.37,47.11-19.62,74.14-27.18,35.33-9.88,73.11-16.78,102.71-16.78,15.88,0,29.4,2,38.92,6.54s15.07,11.64,15.08,22a37.16,37.16,0,0,1-1.55,10.15,75.09,75.09,0,0,1-8,17.38c-9.28,15.69-13.39,27.51-13.39,36.08,0,6.43,2.32,11,6.55,14s10.3,4.35,17.75,4.35c20.24,0,50.7-10,82.41-25s64.64-35,89.71-55.08c27.26-21.82,50.23-28.1,67.67-28.1a65.86,65.86,0,0,1,27.63,5.87,54,54,0,0,1,7.27,4c.82.55,1.44,1,1.85,1.33.21.16.37.28.47.37l.15.13.38-.24"/><path class="cls-1" d="M751.58,179.74s-11.24-9.46-32.66-9.46c-17.59,0-42,6.37-72.71,29.5-26.57,20-61,40.58-93.53,56.14S489.43,282,470.38,282c-6.2,0-11.14-1.11-14.53-3.5s-5.26-6.07-5.27-11.29c0-8.52,5.05-21.1,16.63-38.54,8.27-12.47,12-22.48,12-30.38,0-9.06-4.92-15.37-13.43-19.38s-20.59-5.73-35-5.73c-52.42,0-135.44,23-186.95,43.36-73.43,29-126.39,38-163.74,38-29.95,0-49.88-5.74-62.32-11.47A69.84,69.84,0,0,1,4.44,235.2a36.74,36.74,0,0,1-3.06-2.59c-.33-.31-.57-.55-.73-.72a3.07,3.07,0,0,1-.23-.25l-.42.2s20.06,23.07,80.13,23.07c37.46,0,90.5-9,164-38,51.45-20.34,134.48-43.32,186.72-43.32,14.31,0,26.31,1.73,34.69,5.68s13.19,10.1,13.2,19.06c0,7.82-3.7,17.78-11.95,30.21-11.6,17.47-16.67,30.08-16.68,38.71,0,5.28,1.91,9.08,5.43,11.56s8.6,3.6,14.87,3.6c19.27,0,50-10.59,82.57-26.16s67-36.17,93.62-56.2c30.64-23.08,54.93-29.39,72.35-29.39a60.74,60.74,0,0,1,24.1,4.67,44,44,0,0,1,6.13,3.21c.68.44,1.2.81,1.54,1.06l.39.29.12.11.38-.25"/></g></g></svg>